<svg xmlns="http://www.w3.org/2000/svg" height="24" viewBox="0 -960 960 960" width="24"><path d="M700-380v-40h100q8.5 0 14.25 5.758 5.75 5.757 5.75 14.269t-5.75 14.242Q808.5-380 800-380H700Zm0 160v-40h100q8.5 0 14.25 5.758 5.75 5.757 5.75 14.269t-5.75 14.242Q808.5-220 800-220H700Zm-120 40q-33 0-56.5-23.5T500-260h-80v-120h80q0-33 23.5-56.5T580-460h80v280h-80ZM280-300q-58.308 0-99.154-40.846T140-440q0-58.308 40.846-99.154T280-580h60q32.692 0 56.346-23.654Q420-627.308 420-660q0-32.692-23.654-56.346Q372.692-740 340-740H200q-8.5 0-14.25-5.758-5.75-5.757-5.75-14.269t5.75-14.242Q191.5-780 200-780h140q50.308 0 85.154 34.846T460-660q0 50.308-34.846 85.154T340-540h-60q-41.25 0-70.625 29.419T180-439.85q0 41.311 29.375 70.581Q238.75-340 280-340h100v40H280Z"/></svg>