<svg xmlns="http://www.w3.org/2000/svg" height="24" viewBox="0 -960 960 960" width="24"><path d="M133.847-800v-59.999h114.231V-800H133.847Zm-29.614 699.229h345.768v-149.23H133.925l-29.692 149.23Zm138.459-488.152-42.768-41.768 80.769-80.769 42.768 41.768-80.769 80.769Zm-96.614 278.924h303.923v-150.384H176.155l-30.077 150.384ZM480-679.615q-75.307 0-128.037-52.731-52.731-52.73-52.731-128.037h361.536q0 75.307-52.731 128.037-52.73 52.731-128.037 52.731Zm-29.999 163.461v-114.23h59.998v114.23h-59.998Zm59.998 415.383h345.384l-29.692-149.23H509.999v149.23Zm0-209.228h303.538L783.46-460.383H509.999v150.384Zm208.078-278.54-80.538-81.153 41.768-41.768 81.538 80.153-42.768 42.768ZM711.922-800v-59.999h114.231V-800H711.922Z"/></svg>