<svg xmlns="http://www.w3.org/2000/svg" height="24" viewBox="0 -960 960 960" width="24"><path d="M370.001-107.386v-92.308q-101.385-34.307-165.692-121.999Q140.001-409.385 140.001-522q0-70.769 26.77-132.615 26.769-61.846 72.768-107.846 46-45.999 107.846-72.768 61.846-26.77 131.615-26.77 70.154 0 132.307 26.77 62.154 26.769 108.461 72.768 46.308 46 73.269 107.846Q819.999-592.769 819.999-522q0 112.23-64.616 199.307-64.615 87.077-165.384 121.999v93.308h-59.998v-78.539q-12.693 2.77-25.193 3.347-12.5.577-25.808.577-12.693 0-24.693-.885-12-.885-24.308-3.039v78.539h-59.998Zm-40-502.615h299.998v-59.998H330.001v59.998ZM450-294.232l103.845-103.845-50-50L555.768-500 510-545.768 406.155-441.923l50 50L404.232-340 450-294.232Z"/></svg>