<svg xmlns="http://www.w3.org/2000/svg" height="24" viewBox="0 -960 960 960" width="24"><path d="M380-132.769v-84.615Q283.231-249 221.615-331.884 160-414.769 160-522q0-66.539 25.038-124.731 25.039-58.192 68.539-101.692 43.5-43.5 101.692-68.539Q413.461-842 479-842q66.308 0 124.615 25.038 58.308 25.039 101.924 68.539 43.615 43.5 69.038 101.692Q800-588.539 800-522q0 106.462-61.731 189.116-61.73 82.653-158.269 114.5v85.615h-40v-75.077q-15.385 3.539-30.385 4.692Q494.615-202 479-202q-15.385 0-29.885-1.269-14.5-1.269-29.115-4.577v75.077h-40ZM480-240q116 0 198-82t82-198q0-116-82-198t-198-82q-116 0-198 82t-82 198q0 116 82 198t198 82ZM340-620h280v-40H340v40Zm110 311.539 87.693-87.693-50-50L541.539-500 510-531.539l-87.693 87.693 50 50L418.461-340 450-308.461ZM480-520Z"/></svg>